<svg width="35" height="36" viewBox="0 0 35 36" fill="none" xmlns="http://www.w3.org/2000/svg">
<g clip-path="url(#clip0_36_19275)">
<path d="M6.49688 3.45313C6.70225 3.21301 6.95721 3.02024 7.2442 2.88807C7.53119 2.75591 7.84341 2.68748 8.15938 2.6875H26.8406C27.1566 2.68748 27.4688 2.75591 27.7558 2.88807C28.0428 3.02024 28.2977 3.21301 28.5031 3.45313L34.2103 10.1119C34.7199 10.7065 35 11.4638 35 12.2469V12.8047C35.0001 13.8874 34.6619 14.9432 34.0327 15.8244C33.4035 16.7055 32.5147 17.3681 31.4905 17.7194C30.4664 18.0708 29.358 18.0934 28.3204 17.784C27.2828 17.4747 26.3677 16.8489 25.7031 15.9941C25.2178 16.6192 24.5959 17.1249 23.8849 17.4726C23.174 17.8203 22.393 18.0007 21.6016 18C20.8101 18.0009 20.029 17.8206 19.3181 17.4729C18.6071 17.1252 17.9852 16.6193 17.5 15.9941C17.0148 16.6193 16.3929 17.1252 15.6819 17.4729C14.971 17.8206 14.1899 18.0009 13.3984 18C12.607 18.0009 11.8259 17.8206 11.1149 17.4729C10.404 17.1252 9.78208 16.6193 9.29688 15.9941C8.63229 16.8489 7.71724 17.4747 6.67961 17.784C5.64198 18.0934 4.53363 18.0708 3.50946 17.7194C2.48529 17.3681 1.59649 16.7055 0.967274 15.8244C0.33806 14.9432 -0.000119434 13.8874 3.16412e-08 12.8047V12.2469C2.7579e-05 11.4638 0.280124 10.7065 0.789688 10.1119L6.49906 3.45094L6.49688 3.45313ZM10.3906 12.8047C10.3906 13.6024 10.7075 14.3675 11.2716 14.9315C11.8357 15.4956 12.6007 15.8125 13.3984 15.8125C14.1962 15.8125 14.9612 15.4956 15.5253 14.9315C16.0894 14.3675 16.4063 13.6024 16.4062 12.8047C16.4062 12.5146 16.5215 12.2364 16.7266 12.0313C16.9317 11.8262 17.2099 11.7109 17.5 11.7109C17.7901 11.7109 18.0683 11.8262 18.2734 12.0313C18.4785 12.2364 18.5938 12.5146 18.5938 12.8047C18.5938 13.6024 18.9106 14.3675 19.4747 14.9315C20.0388 15.4956 20.8038 15.8125 21.6016 15.8125C22.3993 15.8125 23.1643 15.4956 23.7284 14.9315C24.2925 14.3675 24.6094 13.6024 24.6094 12.8047C24.6094 12.5146 24.7246 12.2364 24.9297 12.0313C25.1348 11.8262 25.413 11.7109 25.7031 11.7109C25.9932 11.7109 26.2714 11.8262 26.4765 12.0313C26.6816 12.2364 26.7969 12.5146 26.7969 12.8047C26.7969 13.6024 27.1138 14.3675 27.6778 14.9315C28.2419 15.4956 29.007 15.8125 29.8047 15.8125C30.6024 15.8125 31.3675 15.4956 31.9315 14.9315C32.4956 14.3675 32.8125 13.6024 32.8125 12.8047V12.2469C32.8125 11.9862 32.7194 11.7341 32.55 11.5359L26.8406 4.875H8.15938L2.45 11.5359C2.28057 11.7341 2.18748 11.9862 2.1875 12.2469V12.8047C2.1875 13.6024 2.50439 14.3675 3.06847 14.9315C3.63254 15.4956 4.39759 15.8125 5.19531 15.8125C5.99303 15.8125 6.75808 15.4956 7.32216 14.9315C7.88623 14.3675 8.20312 13.6024 8.20312 12.8047C8.20312 12.5146 8.31836 12.2364 8.52348 12.0313C8.7286 11.8262 9.00679 11.7109 9.29688 11.7109C9.58696 11.7109 9.86515 11.8262 10.0703 12.0313C10.2754 12.2364 10.3906 12.5146 10.3906 12.8047V12.8047ZM3.28125 19.0938C3.57133 19.0938 3.84953 19.209 4.05465 19.4141C4.25977 19.6192 4.375 19.8974 4.375 20.1875V33.3125H6.5625V22.375C6.5625 21.7948 6.79297 21.2384 7.2032 20.8282C7.61344 20.418 8.16984 20.1875 8.75 20.1875H15.3125C15.8927 20.1875 16.4491 20.418 16.8593 20.8282C17.2695 21.2384 17.5 21.7948 17.5 22.375V33.3125H30.625V20.1875C30.625 19.8974 30.7402 19.6192 30.9454 19.4141C31.1505 19.209 31.4287 19.0938 31.7188 19.0938C32.0088 19.0938 32.287 19.209 32.4921 19.4141C32.6973 19.6192 32.8125 19.8974 32.8125 20.1875V33.3125H33.9062C34.1963 33.3125 34.4745 33.4277 34.6796 33.6329C34.8848 33.838 35 34.1162 35 34.4062C35 34.6963 34.8848 34.9745 34.6796 35.1796C34.4745 35.3848 34.1963 35.5 33.9062 35.5H1.09375C0.803669 35.5 0.52547 35.3848 0.320352 35.1796C0.115234 34.9745 3.16412e-08 34.6963 3.16412e-08 34.4062C3.16412e-08 34.1162 0.115234 33.838 0.320352 33.6329C0.52547 33.4277 0.803669 33.3125 1.09375 33.3125H2.1875V20.1875C2.1875 19.8974 2.30273 19.6192 2.50785 19.4141C2.71297 19.209 2.99117 19.0938 3.28125 19.0938V19.0938ZM8.75 33.3125H15.3125V22.375H8.75V33.3125ZM19.6875 22.375C19.6875 21.7948 19.918 21.2384 20.3282 20.8282C20.7384 20.418 21.2948 20.1875 21.875 20.1875H26.25C26.8302 20.1875 27.3866 20.418 27.7968 20.8282C28.207 21.2384 28.4375 21.7948 28.4375 22.375V28.9375C28.4375 29.5177 28.207 30.0741 27.7968 30.4843C27.3866 30.8945 26.8302 31.125 26.25 31.125H21.875C21.2948 31.125 20.7384 30.8945 20.3282 30.4843C19.918 30.0741 19.6875 29.5177 19.6875 28.9375V22.375ZM26.25 22.375H21.875V28.9375H26.25V22.375Z" fill="white"/>
</g>
<defs>
<clipPath id="clip0_36_19275">
<rect width="35" height="35" fill="white" transform="translate(0 0.5)"/>
</clipPath>
</defs>
</svg>
