<svg width="40" height="38" viewBox="0 0 40 38" fill="none" xmlns="http://www.w3.org/2000/svg">
<path d="M7.425 1.375C7.65972 1.10059 7.95109 0.880277 8.27909 0.729228C8.60708 0.578179 8.9639 0.499976 9.325 0.5H30.675C31.0361 0.499976 31.3929 0.578179 31.7209 0.729228C32.0489 0.880277 32.3403 1.10059 32.575 1.375L39.0975 8.985C39.6799 9.66458 40 10.53 40 11.425V12.0625C40.0001 13.2999 39.6136 14.5065 38.8945 15.5136C38.1754 16.5206 37.1597 17.2778 35.9892 17.6794C34.8187 18.0809 33.552 18.1067 32.3662 17.7532C31.1803 17.3996 30.1345 16.6844 29.375 15.7075C28.8204 16.4219 28.1096 16.9999 27.2971 17.3973C26.4846 17.7947 25.592 18.0008 24.6875 18C23.783 18.001 22.8903 17.7949 22.0778 17.3976C21.2653 17.0002 20.5545 16.4221 20 15.7075C19.4455 16.4221 18.7347 17.0002 17.9222 17.3976C17.1097 17.7949 16.217 18.001 15.3125 18C14.408 18.001 13.5153 17.7949 12.7028 17.3976C11.8903 17.0002 11.1795 16.4221 10.625 15.7075C9.86548 16.6844 8.81971 17.3996 7.63384 17.7532C6.44798 18.1067 5.18129 18.0809 4.01081 17.6794C2.84033 17.2778 1.82456 16.5206 1.10546 15.5136C0.386355 14.5065 -0.000136496 13.2999 3.61613e-08 12.0625V11.425C3.15188e-05 10.53 0.320141 9.66458 0.9025 8.985L7.4275 1.3725L7.425 1.375ZM11.875 12.0625C11.875 12.9742 12.2372 13.8485 12.8818 14.4932C13.5265 15.1378 14.4008 15.5 15.3125 15.5C16.2242 15.5 17.0985 15.1378 17.7432 14.4932C18.3878 13.8485 18.75 12.9742 18.75 12.0625C18.75 11.731 18.8817 11.413 19.1161 11.1786C19.3505 10.9442 19.6685 10.8125 20 10.8125C20.3315 10.8125 20.6495 10.9442 20.8839 11.1786C21.1183 11.413 21.25 11.731 21.25 12.0625C21.25 12.9742 21.6122 13.8485 22.2568 14.4932C22.9015 15.1378 23.7758 15.5 24.6875 15.5C25.5992 15.5 26.4735 15.1378 27.1182 14.4932C27.7628 13.8485 28.125 12.9742 28.125 12.0625C28.125 11.731 28.2567 11.413 28.4911 11.1786C28.7255 10.9442 29.0435 10.8125 29.375 10.8125C29.7065 10.8125 30.0245 10.9442 30.2589 11.1786C30.4933 11.413 30.625 11.731 30.625 12.0625C30.625 12.9742 30.9872 13.8485 31.6318 14.4932C32.2765 15.1378 33.1508 15.5 34.0625 15.5C34.9742 15.5 35.8485 15.1378 36.4932 14.4932C37.1378 13.8485 37.5 12.9742 37.5 12.0625V11.425C37.5 11.1271 37.3936 10.8389 37.2 10.6125L30.675 3H9.325L2.8 10.6125C2.60637 10.8389 2.49998 11.1271 2.5 11.425V12.0625C2.5 12.9742 2.86216 13.8485 3.50682 14.4932C4.15148 15.1378 5.02582 15.5 5.9375 15.5C6.84918 15.5 7.72352 15.1378 8.36818 14.4932C9.01284 13.8485 9.375 12.9742 9.375 12.0625C9.375 11.731 9.5067 11.413 9.74112 11.1786C9.97554 10.9442 10.2935 10.8125 10.625 10.8125C10.9565 10.8125 11.2745 10.9442 11.5089 11.1786C11.7433 11.413 11.875 11.731 11.875 12.0625ZM3.75 19.25C4.08152 19.25 4.39946 19.3817 4.63388 19.6161C4.8683 19.8505 5 20.1685 5 20.5V35.5H35V20.5C35 20.1685 35.1317 19.8505 35.3661 19.6161C35.6005 19.3817 35.9185 19.25 36.25 19.25C36.5815 19.25 36.8995 19.3817 37.1339 19.6161C37.3683 19.8505 37.5 20.1685 37.5 20.5V35.5H38.75C39.0815 35.5 39.3995 35.6317 39.6339 35.8661C39.8683 36.1005 40 36.4185 40 36.75C40 37.0815 39.8683 37.3995 39.6339 37.6339C39.3995 37.8683 39.0815 38 38.75 38H1.25C0.918479 38 0.600537 37.8683 0.366117 37.6339C0.131696 37.3995 3.61613e-08 37.0815 3.61613e-08 36.75C3.61613e-08 36.4185 0.131696 36.1005 0.366117 35.8661C0.600537 35.6317 0.918479 35.5 1.25 35.5H2.5V20.5C2.5 20.1685 2.6317 19.8505 2.86612 19.6161C3.10054 19.3817 3.41848 19.25 3.75 19.25ZM8.75 20.5C9.08152 20.5 9.39946 20.6317 9.63388 20.8661C9.8683 21.1005 10 21.4185 10 21.75V30.5H30V21.75C30 21.4185 30.1317 21.1005 30.3661 20.8661C30.6005 20.6317 30.9185 20.5 31.25 20.5C31.5815 20.5 31.8995 20.6317 32.1339 20.8661C32.3683 21.1005 32.5 21.4185 32.5 21.75V30.5C32.5 31.163 32.2366 31.7989 31.7678 32.2678C31.2989 32.7366 30.663 33 30 33H10C9.33696 33 8.70107 32.7366 8.23223 32.2678C7.76339 31.7989 7.5 31.163 7.5 30.5V21.75C7.5 21.4185 7.6317 21.1005 7.86612 20.8661C8.10054 20.6317 8.41848 20.5 8.75 20.5Z" fill="black"/>
</svg>
