<svg width="240" height="68" viewBox="0 0 240 68" fill="none" xmlns="http://www.w3.org/2000/svg">
<path d="M59.175 54.9899L76.8472 55.9271L65.6013 42.0036L92.3773 43.3424L86.8882 36.5145C83.1396 31.8287 77.5166 29.0172 71.6259 28.7494L53.9537 27.8123L65.1996 41.7358L38.4236 40.397L43.9127 47.2249C47.6613 51.7768 53.1504 54.5883 59.175 54.9899Z" fill="#F0A63E"/>
<path d="M20.7514 39.326L38.4236 40.2632L27.1777 26.3396L53.9537 27.6784L48.4646 20.8505C44.716 16.1647 39.093 13.3532 33.2023 13.0855L15.5301 12.1483L26.776 26.0719L0 24.733L5.48909 31.5609C9.23773 36.2468 14.8607 39.0582 20.7514 39.326Z" fill="#F0A63E"/>
<path d="M110.898 23.5472V31.4717H121.54V36.4981H110.898V44.8755H122.898V50.0377H104.558V18.3849H122.898V23.5472H110.898ZM159.814 24.5887C162.893 24.5887 165.369 25.5396 167.24 27.4415C169.142 29.3132 170.093 31.9396 170.093 35.3207V50.0377H163.754V36.1811C163.754 34.2189 163.256 32.7245 162.259 31.6981C161.263 30.6415 159.905 30.1132 158.184 30.1132C156.463 30.1132 155.09 30.6415 154.063 31.6981C153.067 32.7245 152.569 34.2189 152.569 36.1811V50.0377H146.229V36.1811C146.229 34.2189 145.731 32.7245 144.735 31.6981C143.739 30.6415 142.38 30.1132 140.659 30.1132C138.908 30.1132 137.52 30.6415 136.493 31.6981C135.497 32.7245 134.999 34.2189 134.999 36.1811V50.0377H128.659V24.9509H134.999V27.9849C135.814 26.9283 136.856 26.0981 138.123 25.4943C139.422 24.8905 140.84 24.5887 142.38 24.5887C144.342 24.5887 146.093 25.0113 147.633 25.8566C149.173 26.6717 150.365 27.849 151.21 29.3887C152.025 27.9396 153.203 26.7773 154.742 25.9019C156.312 25.0264 158.003 24.5887 159.814 24.5887ZM174.479 37.4038C174.479 34.8679 174.977 32.6189 175.973 30.6566C177 28.6943 178.373 27.1849 180.094 26.1283C181.845 25.0717 183.792 24.5434 185.936 24.5434C187.807 24.5434 189.437 24.9207 190.826 25.6755C192.245 26.4302 193.377 27.3811 194.222 28.5283V24.9509H200.607V50.0377H194.222V46.3698C193.407 47.5472 192.275 48.5283 190.826 49.3132C189.407 50.0679 187.762 50.4453 185.89 50.4453C183.777 50.4453 181.845 49.9019 180.094 48.8151C178.373 47.7283 177 46.2038 175.973 44.2415C174.977 42.249 174.479 39.9698 174.479 37.4038ZM194.222 37.4943C194.222 35.9547 193.921 34.6415 193.317 33.5547C192.713 32.4377 191.898 31.5924 190.871 31.0189C189.845 30.4151 188.743 30.1132 187.566 30.1132C186.388 30.1132 185.302 30.4 184.305 30.9736C183.309 31.5472 182.494 32.3924 181.86 33.5094C181.256 34.5962 180.954 35.8943 180.954 37.4038C180.954 38.9132 181.256 40.2415 181.86 41.3887C182.494 42.5056 183.309 43.366 184.305 43.9698C185.332 44.5736 186.419 44.8755 187.566 44.8755C188.743 44.8755 189.845 44.5887 190.871 44.0151C191.898 43.4113 192.713 42.566 193.317 41.4792C193.921 40.3622 194.222 39.0339 194.222 37.4943ZM213.139 28.8453C213.954 27.517 215.01 26.4755 216.308 25.7207C217.637 24.966 219.146 24.5887 220.837 24.5887V31.2453H219.161C217.169 31.2453 215.659 31.7132 214.633 32.649C213.637 33.5849 213.139 35.2151 213.139 37.5396V50.0377H206.799V24.9509H213.139V28.8453ZM232.488 30.1585V42.2943C232.488 43.1396 232.684 43.7585 233.077 44.1509C233.499 44.5132 234.194 44.6943 235.16 44.6943H238.103V50.0377H234.118C228.775 50.0377 226.103 47.4415 226.103 42.249V30.1585H223.114V24.9509H226.103V18.7472H232.488V24.9509H238.103V30.1585H232.488Z" fill="white"/>
</svg>
