<svg width="34" height="34" viewBox="0 0 34 34" fill="none" xmlns="http://www.w3.org/2000/svg">
<path d="M24.953 21.9765C27.0106 19.1688 27.9322 15.6877 27.5334 12.2297C27.1346 8.77169 25.4448 5.59177 22.8021 3.32613C20.1594 1.06049 16.7587 -0.123776 13.2803 0.0102509C9.802 0.144278 6.50251 1.58672 4.042 4.04899C1.58149 6.51126 0.141412 9.81178 0.00987363 13.2902C-0.121664 16.7687 1.06504 20.1685 3.33257 22.8096C5.60009 25.4507 8.78122 27.1382 12.2395 27.5345C15.6978 27.9308 19.1782 27.0068 21.9845 24.9472H21.9824C22.0461 25.0322 22.1141 25.1129 22.1906 25.1916L30.3716 33.3726C30.7701 33.7713 31.3106 33.9954 31.8743 33.9956C32.438 33.9958 32.9787 33.7721 33.3774 33.3737C33.7761 32.9752 34.0002 32.4347 34.0004 31.871C34.0006 31.3073 33.7769 30.7667 33.3784 30.3679L25.1974 22.1869C25.1214 22.11 25.0397 22.0389 24.953 21.9744V21.9765ZM25.5013 13.8082C25.5013 15.343 25.199 16.8628 24.6116 18.2807C24.0243 19.6987 23.1634 20.9871 22.0782 22.0723C20.9929 23.1576 19.7045 24.0185 18.2866 24.6058C16.8686 25.1931 15.3488 25.4954 13.8141 25.4954C12.2793 25.4954 10.7595 25.1931 9.34156 24.6058C7.9236 24.0185 6.63522 23.1576 5.54996 22.0723C4.4647 20.9871 3.60383 19.6987 3.01649 18.2807C2.42915 16.8628 2.12685 15.343 2.12685 13.8082C2.12685 10.7086 3.35818 7.73589 5.54996 5.54411C7.74173 3.35234 10.7144 2.12101 13.8141 2.12101C16.9137 2.12101 19.8864 3.35234 22.0782 5.54411C24.2699 7.73589 25.5013 10.7086 25.5013 13.8082V13.8082Z" fill="#16213B"/>
</svg>
