<svg width="248" height="193" viewBox="0 0 248 193" fill="none" xmlns="http://www.w3.org/2000/svg">
<path fill-rule="evenodd" clip-rule="evenodd" d="M229.179 92.3651C227.811 92.6705 226.506 93.3363 225.412 94.3668C222.168 97.4232 222.016 102.531 225.072 105.775C227.806 108.677 232.182 109.104 235.396 106.974C237.278 107.556 239.41 107.137 240.946 105.69C243.216 103.55 243.323 99.9751 241.183 97.7044C240.305 96.7723 239.185 96.2049 238.013 96.0077C239.793 94.0624 239.796 91.0431 237.959 89.0928C236.033 87.0491 232.816 86.9533 230.772 88.8788C229.766 89.826 229.232 91.086 229.179 92.3651Z" fill="#FDFDF8"/>
<path fill-rule="evenodd" clip-rule="evenodd" d="M221.102 69.901C221.279 70.443 221.599 70.9463 222.058 71.3502C223.426 72.5532 225.51 72.4196 226.713 71.0519C227.789 69.8283 227.796 68.0315 226.806 66.805C226.968 66.0189 226.716 65.1702 226.07 64.6022C225.112 63.7601 223.654 63.8535 222.811 64.811C222.466 65.2038 222.278 65.681 222.242 66.1653C221.383 65.5173 220.156 65.632 219.433 66.4536C218.675 67.3153 218.759 68.6282 219.621 69.3861C220.045 69.7593 220.579 69.9283 221.102 69.901Z" fill="#FDFDF8"/>
<path d="M201.415 131.833C198.46 143.881 188.829 148.275 184.383 148.965C199.364 147.592 204.174 144.509 204.706 143.139C210.125 145.813 213.059 141.052 213.849 138.337C216.791 140.71 224.096 143.74 229.78 136.877C235.464 130.014 230.514 126.429 227.328 125.495C222.971 119.779 218.059 123.796 216.148 126.519C216.346 122.537 214.464 120.446 213.268 119.706C212.073 118.966 202.743 115.574 201.415 131.833Z" fill="white"/>
<path d="M66.4321 175.805C64.8072 182.431 59.5101 184.848 57.0647 185.227C65.3042 184.472 67.9494 182.776 68.242 182.023C71.2223 183.494 72.8361 180.875 73.2705 179.382C74.8885 180.687 78.9063 182.354 82.0326 178.579C85.159 174.805 82.4361 172.833 80.6838 172.319C78.2875 169.175 75.5861 171.385 74.5349 172.882C74.6442 170.692 73.6087 169.542 72.9514 169.135C72.294 168.728 67.1626 166.863 66.4321 175.805Z" fill="white"/>
<path d="M174.508 153.694C191.362 153.044 204.483 138.488 203.815 121.184C203.148 103.88 188.943 90.3789 172.089 91.0294C155.235 91.6798 142.114 106.235 142.781 123.539C143.449 140.844 157.653 154.345 174.508 153.694Z" fill="#152C35"/>
<path d="M180.768 141.603C189.156 141.279 195.633 132.637 195.234 122.299C194.835 111.962 187.712 103.844 179.324 104.168C170.936 104.491 164.459 113.134 164.858 123.471C165.257 133.809 172.38 141.927 180.768 141.603Z" fill="#D3DDD4"/>
<path d="M60.5234 136.189C60.5234 136.189 77.7319 142.111 110.095 136.702C142.458 131.293 142.246 125.757 142.246 125.757C142.246 125.757 130.279 112.01 110.572 113.118C90.8657 114.226 60.5234 136.189 60.5234 136.189Z" fill="#F76F35"/>
<path d="M130.822 125.86C130.822 125.86 136.11 74.3706 146.047 62.5507C155.985 50.7308 103.623 58.6441 103.623 58.6441L87.9053 127.171L130.822 125.86Z" fill="#BC5226"/>
<path d="M137.084 63.9455C137.084 63.9455 119.887 112.085 129.524 128.345C139.161 144.605 202.706 121.012 207.906 112.141C213.106 103.271 202.856 80.108 192.474 71.4994C182.092 62.8908 180.1 56.3828 180.1 56.3828L137.084 63.9455Z" fill="#FF824C"/>
<path d="M62.2109 135.091C62.2109 135.091 112.519 136.614 127.182 130.504C141.845 124.394 121.564 110.62 93.3015 114.486C65.0392 118.351 50.3203 132.086 50.3203 132.086L62.2109 135.091Z" fill="#D95F2C"/>
<path d="M65.7142 126.991C65.7142 126.991 73.2328 124.275 76.2319 121.213C79.2311 118.152 84.0657 117.619 89.46 118.267C94.8544 118.916 95.7971 120.795 95.7971 120.795C95.7971 120.795 97.2555 127.15 95.9503 129.28C94.6452 131.41 78.7361 132.197 72.3106 131.752C65.8851 131.307 61.6868 130.429 65.7142 126.991Z" fill="#8B4536"/>
<path d="M110.252 69.883C110.252 69.883 135.598 68.7899 169.762 61.9928C203.927 55.1956 204 52.7197 200.71 47.1387C197.42 41.5577 184.743 46.6902 176.302 45.9977C167.861 45.3051 118.1 57.2479 118.1 57.2479L110.252 69.883Z" fill="#152C35"/>
<path d="M50.6249 26.6992C50.6249 26.6992 30.9064 33.8082 27.1972 53.2822C24.2983 68.5019 21.0428 96.9646 25.5828 117.284C30.1228 137.604 56.308 142.859 56.308 142.859L57.3303 28.461L50.6249 26.6992Z" fill="#D75E2A"/>
<path d="M76.8644 25.9805C76.8644 25.9805 90.667 32.0849 97.0336 47.4283C103.4 62.7718 84.6598 135.005 73.3113 140.349C61.9628 145.694 41.5549 150.599 35.6862 110.705C29.8175 70.8118 50.8264 31.8934 58.4628 27.8454" fill="#FF824C"/>
<path d="M54.2495 22.0722L41.2865 21.6509L29.0454 21.2532C27.9763 21.2179 26.965 20.7595 26.2336 19.979C25.5022 19.1984 25.1105 18.1595 25.1446 17.0903C25.1618 16.5608 25.283 16.0399 25.5015 15.5573C25.72 15.0747 26.0315 14.6399 26.418 14.2776C26.8046 13.9154 27.2588 13.6329 27.7546 13.4462C28.2504 13.2595 28.7782 13.1723 29.3076 13.1897L54.503 14.0087C55.5721 14.044 56.5834 14.5024 57.3148 15.2829C58.0462 16.0635 58.4378 17.1024 58.4036 18.1716C58.3682 19.2391 57.9111 20.249 57.1325 20.9802C56.3539 21.7113 55.3172 22.104 54.2495 22.0722Z" fill="#003E60"/>
<path d="M42.2037 13.1211C42.2037 13.1211 40.8484 17.5816 42.4246 19.797C44.0008 22.0125 42.2861 21.438 41.3728 20.1948C40.4595 18.9515 40.3771 16.353 42.2037 13.1211Z" fill="#D95F2C"/>
<path d="M40.4735 8.12054C40.4735 8.12054 43.0426 1.49763 49.1882 0.316233C55.3338 -0.865167 63.686 1.23543 68.8889 7.09235C74.0918 12.9493 88.5427 14.2721 92.134 16.6908C95.7254 19.1096 94.7855 25.871 90.3987 27.5208C86.0119 29.1707 71.9265 26.4838 66.264 29.6627C60.6015 32.8416 50.1369 31.834 45.2227 30.0044C40.3086 28.1749 35.3178 17.4686 40.4735 8.12054Z" fill="#FF824C"/>
<path d="M107.566 26.4353L96.185 25.4307L85.4316 24.4821C83.4754 24.3112 82.0405 22.4198 82.232 20.2868C82.4205 18.142 84.1588 16.5422 86.115 16.7161L108.249 18.6693C110.206 18.8402 111.64 20.7316 111.449 22.8646C111.26 25.0094 109.522 26.6092 107.566 26.4353Z" fill="#003E60"/>
<path d="M61.8032 17.3429C62.9579 11.441 59.1096 5.72052 53.2077 4.56582C47.3058 3.41113 41.5853 7.25947 40.4306 13.1614C39.2759 19.0632 43.1243 24.7837 49.0262 25.9384C54.928 27.0931 60.6485 23.2448 61.8032 17.3429Z" fill="#FFF4CF"/>
<path d="M41.5688 190.999C59.6276 190.302 73.6871 174.707 72.9716 156.167C72.2561 137.627 57.0366 123.162 38.9778 123.859C20.919 124.556 6.85931 140.151 7.57479 158.691C8.29027 177.231 23.5099 191.696 41.5688 190.999Z" fill="#152C35"/>
<path d="M48.2742 178.07C57.2621 177.723 64.2017 168.464 63.7743 157.388C63.3469 146.312 55.7143 137.615 46.7264 137.962C37.7384 138.309 30.7986 147.568 31.2261 158.644C31.6535 169.72 39.2862 178.417 48.2742 178.07Z" fill="#D3DDD4"/>
<path d="M52.0589 124.691C52.0589 124.691 41.1331 154.515 45.0692 158.728C49.0052 162.941 53.666 162.764 56.1908 152.768C58.7157 142.772 60.8504 130.897 60.8504 130.897L52.0589 124.691Z" fill="#152C35"/>
<path d="M2.93259 147.939C4.29052 146.636 5.89869 145.621 7.65992 144.957C9.42116 144.294 11.2988 143.994 13.1792 144.077C19.5988 144.348 19.593 148.681 24.784 148.496C29.9751 148.31 30.85 139.598 45.8223 136.938C60.7946 134.278 64.2358 142.639 71.2152 143.929C78.1946 145.22 72.205 133.668 56.1132 125.28C40.0214 116.893 23.2166 121.353 11.5912 129.944C-0.0342767 138.535 -2.90371 149.377 2.93259 147.939Z" fill="#D75E2A"/>
<path d="M57.1846 45.5162C57.1846 45.5162 65.8954 40.5281 68.7302 40.6613C71.565 40.7945 65.2129 45.3285 70.5939 44.2075C75.975 43.0865 85.1635 41.9298 86.2596 43.0696C87.3557 44.2094 68.9998 47.5238 67.0061 47.7131C65.0123 47.9025 65.771 43.827 65.771 43.827L57.4898 46.4614C56.9487 46.6255 57.1846 45.5162 57.1846 45.5162Z" fill="#FFF4CF"/>
<path d="M76.1759 126.495C76.1759 126.495 92.8658 80.8862 91.051 67.443C89.2362 53.9997 88.3995 65.9876 83.2909 88.5343C78.1823 111.081 70.6254 130.867 76.1759 126.495Z" fill="#D95F2C"/>
<path d="M191.065 79.8555C191.065 79.8555 162.434 87.7187 161.144 90.1935C159.853 92.6682 196.574 83.4645 191.065 79.8555Z" fill="#D95F2C"/>
<path d="M193.28 87.5742C193.28 87.5742 164.65 95.4375 163.359 97.9122C162.069 100.387 198.778 91.1744 193.28 87.5742Z" fill="#D95F2C"/>
<path d="M194.595 94.9766C194.595 94.9766 165.964 102.84 164.674 105.315C163.383 107.789 200.104 98.5738 194.595 94.9766Z" fill="#D95F2C"/>
</svg>
