<svg width="94" height="88" viewBox="0 0 94 88" fill="none" xmlns="http://www.w3.org/2000/svg">
<path d="M0 3.625C0 2.7962 0.32924 2.00134 0.915291 1.41529C1.50134 0.829241 2.2962 0.5 3.125 0.5H12.5C13.1971 0.500193 13.8741 0.733442 14.4233 1.16265C14.9726 1.59187 15.3626 2.1924 15.5312 2.86875L18.0625 13H90.625C91.0997 13.0001 91.5681 13.1084 91.9947 13.3166C92.4213 13.5248 92.7948 13.8274 93.087 14.2015C93.3792 14.5756 93.5823 15.0114 93.6809 15.4757C93.7796 15.94 93.7711 16.4207 93.6562 16.8812L84.2812 54.3813C84.1126 55.0576 83.7226 55.6581 83.1733 56.0873C82.6241 56.5166 81.9471 56.7498 81.25 56.75H25C24.3029 56.7498 23.6259 56.5166 23.0767 56.0873C22.5274 55.6581 22.1374 55.0576 21.9688 54.3813L10.0625 6.75H3.125C2.2962 6.75 1.50134 6.42076 0.915291 5.83471C0.32924 5.24866 0 4.4538 0 3.625ZM19.625 19.25L22.75 31.75H31.25V19.25H19.625ZM37.5 19.25V31.75H50V19.25H37.5ZM56.25 19.25V31.75H68.75V19.25H56.25ZM75 19.25V31.75H83.5L86.625 19.25H75ZM81.9375 38H75V50.5H78.8125L81.9375 38ZM68.75 38H56.25V50.5H68.75V38ZM50 38H37.5V50.5H50V38ZM31.25 38H24.3125L27.4375 50.5H31.25V38ZM31.25 69.25C29.5924 69.25 28.0027 69.9085 26.8306 71.0806C25.6585 72.2527 25 73.8424 25 75.5C25 77.1576 25.6585 78.7473 26.8306 79.9194C28.0027 81.0915 29.5924 81.75 31.25 81.75C32.9076 81.75 34.4973 81.0915 35.6694 79.9194C36.8415 78.7473 37.5 77.1576 37.5 75.5C37.5 73.8424 36.8415 72.2527 35.6694 71.0806C34.4973 69.9085 32.9076 69.25 31.25 69.25ZM18.75 75.5C18.75 72.1848 20.067 69.0054 22.4112 66.6612C24.7554 64.317 27.9348 63 31.25 63C34.5652 63 37.7446 64.317 40.0888 66.6612C42.433 69.0054 43.75 72.1848 43.75 75.5C43.75 78.8152 42.433 81.9946 40.0888 84.3388C37.7446 86.683 34.5652 88 31.25 88C27.9348 88 24.7554 86.683 22.4112 84.3388C20.067 81.9946 18.75 78.8152 18.75 75.5ZM75 69.25C73.3424 69.25 71.7527 69.9085 70.5806 71.0806C69.4085 72.2527 68.75 73.8424 68.75 75.5C68.75 77.1576 69.4085 78.7473 70.5806 79.9194C71.7527 81.0915 73.3424 81.75 75 81.75C76.6576 81.75 78.2473 81.0915 79.4194 79.9194C80.5915 78.7473 81.25 77.1576 81.25 75.5C81.25 73.8424 80.5915 72.2527 79.4194 71.0806C78.2473 69.9085 76.6576 69.25 75 69.25ZM62.5 75.5C62.5 72.1848 63.817 69.0054 66.1612 66.6612C68.5054 64.317 71.6848 63 75 63C78.3152 63 81.4946 64.317 83.8388 66.6612C86.183 69.0054 87.5 72.1848 87.5 75.5C87.5 78.8152 86.183 81.9946 83.8388 84.3388C81.4946 86.683 78.3152 88 75 88C71.6848 88 68.5054 86.683 66.1612 84.3388C63.817 81.9946 62.5 78.8152 62.5 75.5Z" fill="white"/>
</svg>
